<svg xmlns="http://www.w3.org/2000/svg" viewBox="0 0 251.882 251.882" style="enable-background:new 0 0 251.882 251.882" xml:space="preserve"><path d="M215.037 36.846c-49.129-49.128-129.063-49.128-178.191 0-49.127 49.127-49.127 129.063 0 178.19 24.564 24.564 56.83 36.846 89.096 36.846s64.531-12.282 89.096-36.846c49.126-49.127 49.126-129.063-.001-178.19zM49.574 202.309C7.465 160.2 7.465 91.683 49.574 49.574c21.055-21.054 48.711-31.582 76.367-31.582s55.313 10.527 76.367 31.582c42.109 42.109 42.109 110.626 0 152.735-42.109 42.108-110.625 42.108-152.734 0z"/><path d="M194.823 116.941h-59.882V57.059c0-4.971-4.029-9-9-9s-9 4.029-9 9v59.882H57.059c-4.971 0-9 4.029-9 9s4.029 9 9 9h59.882v59.882c0 4.971 4.029 9 9 9s9-4.029 9-9v-59.882h59.882c4.971 0 9-4.029 9-9s-4.029-9-9-9z"/></svg>